<?xml version="1.0" encoding="UTF-8" standalone="no"?>
<svg
   xmlns:dc="http://purl.org/dc/elements/1.1/"
   xmlns:cc="http://creativecommons.org/ns#"
   xmlns:rdf="http://www.w3.org/1999/02/22-rdf-syntax-ns#"
   xmlns:svg="http://www.w3.org/2000/svg"
   xmlns="http://www.w3.org/2000/svg"
   viewBox="0 0 533.33331 140"
   height="140"
   width="533.33331"
   xml:space="preserve"
   id="svg2"
   version="1.1"><metadata
     id="metadata8"><rdf:RDF><cc:Work
         rdf:about=""><dc:format>image/svg+xml</dc:format><dc:type
           rdf:resource="http://purl.org/dc/dcmitype/StillImage" /></cc:Work></rdf:RDF></metadata><defs
     id="defs6" /><g
     transform="matrix(1.3333333,0,0,-1.3333333,0,140)"
     id="g10"><g
       transform="scale(0.1)"
       id="g12"><path
         id="path14"
         style="fill:#d40000;fill-opacity:1;fill-rule:nonzero;stroke:none"
         d="M 0,1049.87 H 4008.32 V -0.0117188 H 0 Z" /><path
         id="path16"
         style="fill:#ffffff;fill-opacity:1;fill-rule:nonzero;stroke:none"
         d="m 171.371,889.871 h 579.68 V 814.602 L 284.531,243.078 h 477.891 v -83.09 H 160 V 235.27 L 626.52,806.789 H 171.371 Z" /><path
         id="path18"
         style="fill:#ffffff;fill-opacity:1;fill-rule:nonzero;stroke:none"
         d="M 1154.38,792.609 1018.95,429.328 h 271.32 z m -56.37,97.262 h 113.16 l 281.21,-729.883 h -103.79 l -67.14,187.231 H 988.789 l -67.23,-187.231 h -105.27 z" /><path
         id="path20"
         style="fill:#ffffff;fill-opacity:1;fill-rule:nonzero;stroke:none"
         d="m 1699.41,508.551 v -267.43 h 160.12 c 53.71,0 93.52,11.02 119.38,33.008 25.86,21.992 38.79,55.672 38.79,100.941 0,45.629 -12.93,79.301 -38.79,100.981 -25.86,21.64 -65.67,32.5 -119.38,32.5 z m 0,300.187 v -220 h 147.78 c 48.75,0 85.08,9.063 108.98,27.153 23.87,18.089 35.82,45.699 35.82,82.847 0,36.84 -11.95,64.383 -35.82,82.621 -23.9,18.243 -60.23,27.379 -108.98,27.379 z m -99.8,81.133 h 255 c 76.09,0 134.77,-15.621 175.94,-46.91 41.17,-31.289 61.75,-75.781 61.75,-133.481 0,-44.64 -10.5,-80.152 -31.6,-106.558 -21.09,-26.402 -52.07,-42.852 -92.93,-49.41 49.11,-10.434 87.23,-32.153 114.42,-65.242 27.19,-33.079 40.78,-74.372 40.78,-123.942 0,-65.199 -22.42,-115.547 -67.23,-151.058 -44.8,-35.5 -108.55,-53.282 -191.25,-53.282 h -264.88 z" /><path
         id="path22"
         style="fill:#ffffff;fill-opacity:1;fill-rule:nonzero;stroke:none"
         d="m 2382.77,508.551 v -267.43 h 160.16 c 53.67,0 93.48,11.02 119.34,33.008 25.86,21.992 38.78,55.672 38.78,100.941 0,45.629 -12.92,79.301 -38.78,100.981 -25.86,21.64 -65.67,32.5 -119.34,32.5 z m 0,300.187 v -220 h 147.78 c 48.79,0 85.11,9.063 108.98,27.153 23.91,18.089 35.82,45.699 35.82,82.847 0,36.84 -11.91,64.383 -35.82,82.621 -23.87,18.243 -60.19,27.379 -108.98,27.379 z m -99.8,81.133 h 255 c 76.09,0 134.76,-15.621 175.94,-46.91 41.17,-31.289 61.79,-75.781 61.79,-133.481 0,-44.64 -10.54,-80.152 -31.64,-106.558 -21.09,-26.402 -52.07,-42.852 -92.93,-49.41 49.1,-10.434 87.23,-32.153 114.42,-65.242 27.18,-33.079 40.78,-74.372 40.78,-123.942 0,-65.199 -22.42,-115.547 -67.23,-151.058 -44.8,-35.54 -108.55,-53.282 -191.25,-53.282 h -264.88 z" /><path
         id="path24"
         style="fill:#ffffff;fill-opacity:1;fill-rule:nonzero;stroke:none"
         d="m 3255.43,889.871 h 109.8 l 173.48,-262.101 175.16,262.101 h 106.09 l -228.44,-341.91 256.8,-387.973 h -109.8 L 3536.37,465.422 3332.3,159.988 h -106.13 l 257.38,385.203 z" /><path
         id="path26"
         style="fill:#ffffff;fill-opacity:1;fill-rule:nonzero;stroke:none"
         d="m 2966.33,889.871 h 99.84 V 159.988 h -99.84 z" /></g></g></svg>